<svg width="296" height="284" viewBox="0 0 296 284" fill="none" xmlns="http://www.w3.org/2000/svg">
<path d="M123.5 49C79.1002 41.8 51.3334 85 43 107.5H34V40H256V107.5H248C224.4 55.5 183.5 46.8333 166 49V137H123.5V49Z" fill="black" stroke="black"/>
<path d="M166 162H125.5H123.5C124.167 184.333 125.1 230.9 123.5 238.5C121.9 246.1 109.167 251 103 252.5V258.5H188.5V252.5C178.1 254.5 169.167 244 166 238.5V162Z" fill="black" stroke="black"/>
<path d="M211.5 71V122.5C204.7 93.7 179.5 75.3333 168 71V65C171 67.5 194 78.375 200 77.875C204.8 77.475 210.167 74 211.5 71Z" fill="#D9D9D9"/>
<path d="M122 63V68.5C90.5 74 85.5 85 86 102C86.5 119 131 129 180.5 140.5C220.1 149.7 230.333 175.667 230.5 187.5C228.9 229.9 187.887 238.333 168.5 239V234C179.5 235.167 203.1 234.1 207.5 206.5C213 172 135 166 105.5 157.5C76 149 47.5 120.5 65 91.5C79 68.3 108.833 62.8333 122 63Z" fill="#D9D9D9"/>
<path d="M66 242.5V169C79.2 204.6 108.5 222.5 121.5 227L120.5 235.5L100 225.5C86 218 70.8333 233.667 66 242.5Z" fill="#D9D9D9"/>
</svg>
