<svg width="300" height="300" viewBox="0 0 300 300" fill="none" xmlns="http://www.w3.org/2000/svg">
<circle cx="150" cy="150" r="150" fill="#D9D9D9"/>
<path d="M128.5 66C84.1002 58.8 52.3334 102 44 124.5H39V57L150 57L261 57V124.5H258.5C234.9 72.5 188.5 63.8333 171 66L169 154H128.5V66Z" fill="black"/>
<path d="M171 179H130.5H128.5C129.167 201.333 130.1 247.9 128.5 255.5C126.9 263.1 114.167 268 108 269.5V275.5L150.75 263.5L193.5 275.5V269.5C181.5 265.5 181.5 265.5 171 255.5V179Z" fill="black"/>
<path d="M216.5 88V139.5C209.7 110.7 184.5 92.3333 173 88V82C176 84.5 199 95.375 205 94.875C209.8 94.475 215.167 91 216.5 88Z" fill="#616060"/>
<path d="M127 80V85.5C95.5 91 90.5 102 91 119C91.5 136 136 146 185.5 157.5C225.1 166.7 235.333 192.667 235.5 204.5C233.9 246.9 192.887 255.333 173.5 256V251C184.5 252.167 208.1 251.1 212.5 223.5C218 189 140 183 110.5 174.5C81 166 52.5 137.5 70 108.5C84 85.3 113.833 79.8333 127 80Z" fill="#616060"/>
<path d="M71 259.5V186C84.2 221.6 113.5 239.5 126.5 244L125.5 252.5L105 242.5C91 235 75.8333 250.667 71 259.5Z" fill="#616060"/>
</svg>
